<svg width="45" height="54" viewBox="0 0 45 54" fill="none" xmlns="http://www.w3.org/2000/svg">
<g clip-path="url(#clip0_544_274)">
<path d="M31.0468 16.4164C30.7895 16.5467 30.5358 16.6847 30.2822 16.838C29.5176 17.2979 28.7679 17.8574 27.9996 18.5013L26.3622 16.5736C26.9254 16.0332 27.5408 15.5426 28.1935 15.1096C28.712 14.7608 29.2565 14.4542 29.8123 14.186C30.0361 14.071 30.2598 13.9637 30.4874 13.864C29.4057 11.898 27.8504 10.4876 26.0899 9.61769C24.3332 8.75155 22.3601 8.41813 20.443 8.60592C18.5371 8.79371 16.6834 9.50655 15.1542 10.7291C13.3862 12.1394 12.0361 14.2473 11.5213 17.0411L11.361 17.9149L10.5143 18.0682C9.68628 18.2177 8.94405 18.4208 8.29507 18.6814C7.66473 18.9344 7.10526 19.2409 6.61293 19.605C6.2213 19.8963 5.88189 20.2259 5.5947 20.5785C4.70327 21.6745 4.28927 23.0504 4.30046 24.4416C4.31165 25.8557 4.75922 27.2814 5.58351 28.4541C5.88935 28.891 6.24741 29.2896 6.65396 29.6384C7.06424 29.9909 7.53046 30.2822 8.05263 30.5007C8.57107 30.7191 9.14173 30.8762 9.77953 30.9682H34.3477C35.545 30.6731 36.6005 30.2707 37.4956 29.7572C38.3871 29.2436 39.1144 28.6228 39.6589 27.8754C40.5056 26.718 40.9233 25.0778 40.9383 23.3991C40.9569 21.6362 40.5392 19.8656 39.7223 18.5741C39.4874 18.2024 39.2337 17.8689 38.9615 17.5662C37.7381 16.2133 36.1865 15.6231 34.5752 15.6116C33.4003 15.604 32.1956 15.8952 31.0468 16.4164ZM42.2623 38.292C43.0195 38.292 43.702 38.6063 44.1981 39.116C44.6942 39.6257 45 40.3309 45 41.105C45 41.883 44.6942 42.5843 44.1981 43.0941C43.702 43.6038 43.0157 43.918 42.2623 43.918C41.5052 43.918 40.8226 43.6038 40.3266 43.0941C40.0692 42.8296 39.8603 42.5115 39.7223 42.1551H32.908C32.3709 42.1551 31.9345 41.7067 31.9345 41.1548V33.5283H26.7911V47.6432C27.1567 47.785 27.4849 48.0072 27.7534 48.2832C28.2495 48.7929 28.5553 49.4981 28.5553 50.2722C28.5553 51.0502 28.2495 51.7515 27.7534 52.2613C27.2574 52.771 26.5711 53.0852 25.8177 53.0852C25.0605 53.0852 24.378 52.771 23.8819 52.2613C23.3858 51.7515 23.08 51.0464 23.08 50.2722C23.08 49.4942 23.3858 48.7929 23.8819 48.2832C24.1542 48.0034 24.4787 47.785 24.8442 47.6432V33.5321H19.0294V50.1151C19.0294 50.667 18.593 51.1154 18.0559 51.1154H7.22462C7.09034 51.5561 6.85537 51.9508 6.54579 52.2689C6.04973 52.7786 5.36345 53.0929 4.61003 53.0929C3.85288 53.0929 3.17033 52.7786 2.67426 52.2689C2.1782 51.7592 1.87236 51.054 1.87236 50.2799C1.87236 49.5019 2.1782 48.8006 2.67426 48.2908C3.17033 47.7811 3.85661 47.4669 4.61003 47.4669C5.36718 47.4669 6.04973 47.7811 6.54579 48.2908C6.77704 48.5285 6.96726 48.8082 7.10526 49.1187H17.0825V33.5321H12.1815V38.6829C12.1815 39.2348 11.7451 39.6832 11.208 39.6832H5.29258C5.15458 40.0473 4.94198 40.373 4.67717 40.6451C4.1811 41.1548 3.49482 41.4691 2.7414 41.4691C1.98798 41.4691 1.3017 41.1548 0.805636 40.6451C0.305843 40.1392 0 39.4341 0 38.6561C0 37.8781 0.305843 37.1768 0.801906 36.6671C1.29797 36.1573 1.98425 35.8431 2.73767 35.8431C3.49109 35.8431 4.17737 36.1573 4.67344 36.6671C4.94944 36.9507 5.1695 37.2994 5.3075 37.6826H10.2308V33.5321H9.71985L9.5632 33.5168C8.66059 33.398 7.8363 33.1795 7.09407 32.8653C6.32574 32.5395 5.64318 32.1179 5.04269 31.6006C4.47576 31.1138 3.97596 30.5581 3.55077 29.9564C2.42064 28.3545 1.81268 26.3961 1.79776 24.4492C1.79403 22.4832 2.3908 20.5248 3.67758 18.9382C4.09532 18.4246 4.58392 17.9532 5.14712 17.5355C5.79983 17.0488 6.54952 16.6349 7.39246 16.2976C7.97431 16.0639 8.59718 15.8684 9.25736 15.7151C10.0033 12.676 11.5922 10.3344 13.6324 8.70557C15.5421 7.18409 17.8433 6.29879 20.208 6.06501C22.5615 5.83123 24.9896 6.24131 27.1641 7.31439C29.5437 8.48712 31.6138 10.4378 32.9602 13.1857C33.501 13.0975 34.0419 13.0554 34.5827 13.0592C36.8579 13.0745 39.051 13.91 40.7816 15.8262C41.1434 16.2286 41.4865 16.677 41.8073 17.1829C42.8927 18.896 43.4447 21.1802 43.4223 23.4183C43.3999 25.6143 42.8218 27.7988 41.6432 29.4084C40.8748 30.4585 39.8902 31.3131 38.7078 31.9915C37.5702 32.6468 36.2424 33.145 34.7542 33.4976L34.4782 33.5321H33.8889V40.1584H39.6888C39.8268 39.7637 40.0468 39.4072 40.3303 39.116C40.8189 38.6063 41.5052 38.292 42.2623 38.292Z" fill="#081330"/>
</g>
<defs>
<clipPath id="clip0_544_274">
<rect width="45" height="47.093" fill="white" transform="translate(0 6)"/>
</clipPath>
</defs>
</svg>
